<svg version="1.1" id="Layer_1" xmlns="http://www.w3.org/2000/svg" xmlns:xlink="http://www.w3.org/1999/xlink" x="0px" y="0px"
	 width="100%" viewBox="0 0 2400 2400" enable-background="new 0 0 2400 2400" xml:space="preserve">
<path fill="#000000" opacity="1.000000" stroke="none" 
	d="
M1154.000000,2402.000000 
	C769.333313,2402.000000 385.666656,2402.000000 2.000000,2402.000000 
	C2.000000,1602.000000 2.000000,802.000000 2.000000,2.000000 
	C802.000000,2.000000 1602.000000,2.000000 2402.000000,2.000000 
	C2402.000000,802.000000 2402.000000,1602.000000 2402.000000,2402.000000 
	C1986.333374,2402.000000 1570.666626,2402.000000 1154.000000,2402.000000 
M683.000854,563.040344 
	C591.354797,563.158569 499.708679,563.273376 408.062683,563.443787 
	C407.157837,563.445496 406.254364,564.184509 403.959167,565.186768 
	C403.959167,568.553955 403.959167,572.442627 403.959167,576.331299 
	C403.958984,629.994446 403.702393,683.659668 404.137329,737.319275 
	C404.247284,750.886108 405.416748,764.663818 408.067139,777.952148 
	C419.121887,833.377625 451.142578,872.128967 503.212830,894.086487 
	C529.367432,905.115662 556.984497,908.966187 585.156311,909.338318 
	C600.241943,909.537598 615.156189,910.853760 629.350952,916.194458 
	C666.656982,930.230408 694.399292,954.892395 710.480530,991.626770 
	C732.499512,1041.924927 724.764893,1102.959106 680.886108,1146.652222 
	C653.680908,1173.742310 619.995605,1186.475220 581.461670,1186.149414 
	C555.194580,1185.927368 529.664734,1190.424927 505.319244,1200.214966 
	C459.188660,1218.765259 426.744965,1250.677246 411.650757,1298.799316 
	C399.943298,1336.124023 400.716553,1373.853394 410.886444,1411.125732 
	C422.770020,1454.678589 449.821808,1486.270752 490.800446,1505.639893 
	C514.849609,1517.006958 540.424744,1522.830200 566.656433,1526.002930 
	C589.117188,1528.719604 611.481445,1531.005981 632.852112,1539.723389 
	C671.675598,1555.559937 696.813232,1583.193726 707.810974,1623.479614 
	C714.345764,1647.417236 715.349609,1672.181885 715.745728,1696.761353 
	C716.460022,1741.080200 715.932434,1785.418823 715.971863,1829.749268 
	C715.975281,1833.623413 716.335571,1837.497437 716.514160,1841.052856 
	C726.977539,1843.538330 1050.337280,1843.236450 1058.491821,1840.775635 
	C1058.687866,1836.755493 1059.073853,1832.483154 1059.077271,1828.210571 
	C1059.119141,1776.213989 1059.132935,1724.217407 1059.086060,1672.220825 
	C1059.073608,1658.317017 1058.681030,1644.720581 1054.999878,1630.848633 
	C1049.381958,1609.678223 1042.097778,1589.526978 1030.182495,1571.236938 
	C1006.624390,1535.074951 975.119141,1509.609497 931.496277,1502.802124 
	C911.851868,1499.736694 891.770325,1498.706299 871.857605,1498.335449 
	C850.598389,1497.939453 830.881042,1492.609619 812.718750,1482.382935 
	C766.593567,1456.410767 741.285095,1417.004639 737.946411,1363.748291 
	C734.503418,1308.829102 765.216858,1254.837769 813.992615,1229.780396 
	C833.065002,1219.982666 853.223022,1215.318604 874.380859,1214.040039 
	C896.376282,1212.710693 918.433716,1212.183960 940.016235,1217.244751 
	C997.451050,1230.712036 1036.258179,1285.626831 1031.879517,1345.733643 
	C1031.111694,1356.274292 1031.461670,1367.139648 1033.105469,1377.569824 
	C1039.646240,1419.071045 1059.595703,1453.543579 1091.602051,1480.354370 
	C1133.855225,1515.748901 1182.616089,1529.532349 1237.046997,1518.455933 
	C1291.673584,1507.339600 1331.748901,1475.870239 1357.741211,1426.877441 
	C1371.407959,1401.116943 1376.673706,1373.424561 1375.299438,1343.971191 
	C1372.995728,1294.599487 1393.000854,1256.122437 1435.395874,1229.958862 
	C1448.901367,1221.623901 1463.693237,1216.789185 1479.514404,1215.097290 
	C1508.178467,1212.031738 1536.886841,1211.602539 1564.883667,1218.978027 
	C1629.471802,1235.993652 1674.271362,1298.755859 1668.767578,1366.486328 
	C1664.536377,1418.556152 1639.489014,1456.873535 1594.497559,1482.293213 
	C1576.036377,1492.723389 1556.032227,1498.457153 1534.383911,1498.258179 
	C1519.772705,1498.123779 1505.092651,1499.035767 1490.539551,1500.460205 
	C1467.094238,1502.755249 1444.546875,1508.707397 1424.797119,1522.096802 
	C1388.222046,1546.892822 1365.188477,1581.342285 1353.888916,1623.865601 
	C1352.868652,1627.704956 1351.629761,1631.486694 1350.630005,1635.331055 
	C1349.652710,1639.088379 1348.096313,1642.889771 1348.086670,1646.675049 
	C1347.927979,1708.670654 1347.965332,1770.666626 1348.002930,1832.662598 
	C1348.004761,1835.552124 1348.421021,1838.441406 1348.623657,1841.063599 
	C1358.145142,1843.396118 1681.768555,1843.286499 1690.436401,1840.950562 
	C1690.649536,1837.258301 1691.069946,1833.322388 1691.074463,1829.385986 
	C1691.122559,1787.388794 1690.549438,1745.381104 1691.330078,1703.398438 
	C1691.743530,1681.160889 1693.255249,1658.789307 1696.444946,1636.793335 
	C1701.560059,1601.519531 1718.982056,1573.042114 1748.947021,1553.011719 
	C1771.004883,1538.266968 1795.634766,1530.708130 1821.919678,1528.216431 
	C1845.164795,1526.012817 1868.217773,1522.657471 1890.565430,1515.663452 
	C1947.546631,1497.830566 1984.616211,1461.158447 1998.519897,1402.126343 
	C2002.934937,1383.380737 2003.444702,1364.519287 2002.933105,1345.543579 
	C2001.491943,1292.104614 1979.867065,1249.031860 1935.683472,1218.273315 
	C1903.176636,1195.643555 1866.265625,1186.626587 1827.163818,1186.224854 
	C1798.510254,1185.930542 1771.678467,1180.138184 1747.631226,1163.900146 
	C1706.077026,1135.840332 1685.450073,1096.179932 1684.689575,1046.606812 
	C1684.339478,1023.791260 1689.864380,1001.645447 1701.490356,981.566101 
	C1727.882202,935.984436 1766.739990,911.060730 1820.082886,909.183472 
	C1837.636353,908.565857 1855.478271,907.340637 1872.553345,903.540283 
	C1930.086548,890.735413 1972.112549,858.520508 1992.363525,801.715698 
	C1997.233521,788.054871 2002.242065,773.515808 2002.495117,759.297241 
	C2003.597900,697.320923 2002.985718,635.313782 2002.926514,573.317932 
	C2002.923584,570.162170 2002.273926,567.007080 2001.914795,563.755981 
	C1887.909424,563.755981 1775.081787,563.755981 1661.382080,563.755981 
	C1661.093994,567.960938 1660.651611,571.517578 1660.636108,575.076111 
	C1660.377075,634.726562 1660.283936,694.378174 1659.823242,754.026978 
	C1659.759644,762.275269 1658.552612,770.641785 1656.822998,778.728577 
	C1648.815063,816.171143 1625.535400,842.601440 1594.942505,863.757080 
	C1586.722412,869.441406 1578.128662,870.659180 1568.422363,869.490173 
	C1550.934448,867.384094 1533.387695,865.162231 1515.810059,864.525146 
	C1471.676147,862.925476 1432.262573,876.652832 1398.844727,905.315002 
	C1350.431152,946.838928 1331.476074,1000.700867 1337.122559,1063.390015 
	C1338.728027,1081.214233 1335.816406,1097.312012 1326.447510,1112.055420 
	C1295.236938,1161.170166 1250.667603,1186.181274 1192.181274,1181.837036 
	C1143.872437,1178.248901 1106.833008,1154.193237 1081.097534,1113.110840 
	C1072.191406,1098.893433 1068.279907,1083.450317 1069.597168,1066.452759 
	C1070.570190,1053.897705 1070.794312,1041.180908 1070.042480,1028.614624 
	C1067.340942,983.463318 1049.798706,944.748169 1017.171814,913.397766 
	C981.574829,879.193481 938.795532,862.575928 889.347961,864.571045 
	C872.102295,865.266968 854.878418,867.330933 837.739441,869.514709 
	C828.272156,870.720947 819.866089,869.434326 812.265076,863.710083 
	C805.880127,858.901611 799.360962,854.230408 793.319092,849.014404 
	C762.548279,822.449646 746.888367,788.942322 746.995605,748.084045 
	C747.146118,690.754883 747.050171,633.425049 746.997070,576.095520 
	C746.993225,571.949280 746.480103,567.803650 746.162659,563.040527 
	C724.947266,563.040527 704.974121,563.040527 683.000854,563.040344 
z"/>
<path fill="#F1BB15" opacity="1.000000" stroke="none" 
	d="
M684.000854,563.040405 
	C704.974121,563.040527 724.947266,563.040527 746.162659,563.040527 
	C746.480103,567.803650 746.993225,571.949280 746.997070,576.095520 
	C747.050171,633.425049 747.146118,690.754883 746.995605,748.084045 
	C746.888367,788.942322 762.548279,822.449646 793.319092,849.014404 
	C799.360962,854.230408 805.880127,858.901611 812.265076,863.710083 
	C819.866089,869.434326 828.272156,870.720947 837.739441,869.514709 
	C854.878418,867.330933 872.102295,865.266968 889.347961,864.571045 
	C938.795532,862.575928 981.574829,879.193481 1017.171814,913.397766 
	C1049.798706,944.748169 1067.340942,983.463318 1070.042480,1028.614624 
	C1070.794312,1041.180908 1070.570190,1053.897705 1069.597168,1066.452759 
	C1068.279907,1083.450317 1072.191406,1098.893433 1081.097534,1113.110840 
	C1106.833008,1154.193237 1143.872437,1178.248901 1192.181274,1181.837036 
	C1250.667603,1186.181274 1295.236938,1161.170166 1326.447510,1112.055420 
	C1335.816406,1097.312012 1338.728027,1081.214233 1337.122559,1063.390015 
	C1331.476074,1000.700867 1350.431152,946.838928 1398.844727,905.315002 
	C1432.262573,876.652832 1471.676147,862.925476 1515.810059,864.525146 
	C1533.387695,865.162231 1550.934448,867.384094 1568.422363,869.490173 
	C1578.128662,870.659180 1586.722412,869.441406 1594.942505,863.757080 
	C1625.535400,842.601440 1648.815063,816.171143 1656.822998,778.728577 
	C1658.552612,770.641785 1659.759644,762.275269 1659.823242,754.026978 
	C1660.283936,694.378174 1660.377075,634.726562 1660.636108,575.076111 
	C1660.651611,571.517578 1661.093994,567.960938 1661.382080,563.755981 
	C1775.081787,563.755981 1887.909424,563.755981 2001.914795,563.755981 
	C2002.273926,567.007080 2002.923584,570.162170 2002.926514,573.317932 
	C2002.985718,635.313782 2003.597900,697.320923 2002.495117,759.297241 
	C2002.242065,773.515808 1997.233521,788.054871 1992.363525,801.715698 
	C1972.112549,858.520508 1930.086548,890.735413 1872.553345,903.540283 
	C1855.478271,907.340637 1837.636353,908.565857 1820.082886,909.183472 
	C1766.739990,911.060730 1727.882202,935.984436 1701.490356,981.566101 
	C1689.864380,1001.645447 1684.339478,1023.791260 1684.689575,1046.606812 
	C1685.450073,1096.179932 1706.077026,1135.840332 1747.631226,1163.900146 
	C1771.678467,1180.138184 1798.510254,1185.930542 1827.163818,1186.224854 
	C1866.265625,1186.626587 1903.176636,1195.643555 1935.683472,1218.273315 
	C1979.867065,1249.031860 2001.491943,1292.104614 2002.933105,1345.543579 
	C2003.444702,1364.519287 2002.934937,1383.380737 1998.519897,1402.126343 
	C1984.616211,1461.158447 1947.546631,1497.830566 1890.565430,1515.663452 
	C1868.217773,1522.657471 1845.164795,1526.012817 1821.919678,1528.216431 
	C1795.634766,1530.708130 1771.004883,1538.266968 1748.947021,1553.011719 
	C1718.982056,1573.042114 1701.560059,1601.519531 1696.444946,1636.793335 
	C1693.255249,1658.789307 1691.743530,1681.160889 1691.330078,1703.398438 
	C1690.549438,1745.381104 1691.122559,1787.388794 1691.074463,1829.385986 
	C1691.069946,1833.322388 1690.649536,1837.258301 1690.436401,1840.950562 
	C1681.768555,1843.286499 1358.145142,1843.396118 1348.623657,1841.063599 
	C1348.421021,1838.441406 1348.004761,1835.552124 1348.002930,1832.662598 
	C1347.965332,1770.666626 1347.927979,1708.670654 1348.086670,1646.675049 
	C1348.096313,1642.889771 1349.652710,1639.088379 1350.630005,1635.331055 
	C1351.629761,1631.486694 1352.868652,1627.704956 1353.888916,1623.865601 
	C1365.188477,1581.342285 1388.222046,1546.892822 1424.797119,1522.096802 
	C1444.546875,1508.707397 1467.094238,1502.755249 1490.539551,1500.460205 
	C1505.092651,1499.035767 1519.772705,1498.123779 1534.383911,1498.258179 
	C1556.032227,1498.457153 1576.036377,1492.723389 1594.497559,1482.293213 
	C1639.489014,1456.873535 1664.536377,1418.556152 1668.767578,1366.486328 
	C1674.271362,1298.755859 1629.471802,1235.993652 1564.883667,1218.978027 
	C1536.886841,1211.602539 1508.178467,1212.031738 1479.514404,1215.097290 
	C1463.693237,1216.789185 1448.901367,1221.623901 1435.395874,1229.958862 
	C1393.000854,1256.122437 1372.995728,1294.599487 1375.299438,1343.971191 
	C1376.673706,1373.424561 1371.407959,1401.116943 1357.741211,1426.877441 
	C1331.748901,1475.870239 1291.673584,1507.339600 1237.046997,1518.455933 
	C1182.616089,1529.532349 1133.855225,1515.748901 1091.602051,1480.354370 
	C1059.595703,1453.543579 1039.646240,1419.071045 1033.105469,1377.569824 
	C1031.461670,1367.139648 1031.111694,1356.274292 1031.879517,1345.733643 
	C1036.258179,1285.626831 997.451050,1230.712036 940.016235,1217.244751 
	C918.433716,1212.183960 896.376282,1212.710693 874.380859,1214.040039 
	C853.223022,1215.318604 833.065002,1219.982666 813.992615,1229.780396 
	C765.216858,1254.837769 734.503418,1308.829102 737.946411,1363.748291 
	C741.285095,1417.004639 766.593567,1456.410767 812.718750,1482.382935 
	C830.881042,1492.609619 850.598389,1497.939453 871.857605,1498.335449 
	C891.770325,1498.706299 911.851868,1499.736694 931.496277,1502.802124 
	C975.119141,1509.609497 1006.624390,1535.074951 1030.182495,1571.236938 
	C1042.097778,1589.526978 1049.381958,1609.678223 1054.999878,1630.848633 
	C1058.681030,1644.720581 1059.073608,1658.317017 1059.086060,1672.220825 
	C1059.132935,1724.217407 1059.119141,1776.213989 1059.077271,1828.210571 
	C1059.073853,1832.483154 1058.687866,1836.755493 1058.491821,1840.775635 
	C1050.337280,1843.236450 726.977539,1843.538330 716.514160,1841.052856 
	C716.335571,1837.497437 715.975281,1833.623413 715.971863,1829.749268 
	C715.932434,1785.418823 716.460022,1741.080200 715.745728,1696.761353 
	C715.349609,1672.181885 714.345764,1647.417236 707.810974,1623.479614 
	C696.813232,1583.193726 671.675598,1555.559937 632.852112,1539.723389 
	C611.481445,1531.005981 589.117188,1528.719604 566.656433,1526.002930 
	C540.424744,1522.830200 514.849609,1517.006958 490.800446,1505.639893 
	C449.821808,1486.270752 422.770020,1454.678589 410.886444,1411.125732 
	C400.716553,1373.853394 399.943298,1336.124023 411.650757,1298.799316 
	C426.744965,1250.677246 459.188660,1218.765259 505.319244,1200.214966 
	C529.664734,1190.424927 555.194580,1185.927368 581.461670,1186.149414 
	C619.995605,1186.475220 653.680908,1173.742310 680.886108,1146.652222 
	C724.764893,1102.959106 732.499512,1041.924927 710.480530,991.626770 
	C694.399292,954.892395 666.656982,930.230408 629.350952,916.194458 
	C615.156189,910.853760 600.241943,909.537598 585.156311,909.338318 
	C556.984497,908.966187 529.367432,905.115662 503.212830,894.086487 
	C451.142578,872.128967 419.121887,833.377625 408.067139,777.952148 
	C405.416748,764.663818 404.247284,750.886108 404.137329,737.319275 
	C403.702393,683.659668 403.958984,629.994446 403.959167,576.331299 
	C403.959167,572.442627 403.959167,568.553955 403.959167,565.186768 
	C406.254364,564.184509 407.157837,563.445496 408.062683,563.443787 
	C499.708679,563.273376 591.354797,563.158569 684.000854,563.040405 
z"/>
</svg>